<svg id="Layer_1" xmlns="http://www.w3.org/2000/svg" xmlns:xlink="http://www.w3.org/1999/xlink" viewBox="0 0 828.2 281.6"><style>.st0{fill:#37414a}</style><path class="st0" d="M311 134c0-31.9 26-57.9 57.9-57.9s57.9 26 57.9 57.9-26 57.9-57.9 57.9-57.9-26-57.9-57.9zm90.2 0c0-18.2-13.9-33.4-32.2-33.4-18.4 0-32.2 15.2-32.2 33.4s13.9 33.4 32.2 33.4c18.3 0 32.2-15.2 32.2-33.4zM422.9 77.4h28.4l25.1 56.7 25.1-56.7h28.4L476.4 192 422.9 77.4zM559.3 76.1l55.9 114.6h-26.8l-8.1-17.6h-41.8l-8.1 17.6h-26.8l55.7-114.6zm10.7 76.3l-10.7-23.6-10.7 23.6H570zM616.3 169.8l19.3-15.8c4.9 7.8 13.1 14 20.9 14 7.5 0 10.9-2.9 10.9-8.1 0-5.1-3.7-8.3-13.2-12.6l-6.4-2.9c-17.1-7.7-26.5-20.3-26.5-35.6 0-19.8 16.4-32.7 34.5-32.7 12.6 0 22.2 3 31.8 14.2l-17.2 18.2c-5.7-7-9.3-8.5-14.5-8.5-4.3 0-8.8 2.7-8.8 7.8 0 5.9 4.9 9.1 15.3 13.7l6.1 2.7c15.6 7 24.7 18.4 24.7 34 0 20.4-15 33.7-36.1 33.7-18.3 0-33-7.5-40.8-22.1z"/><g><path class="st0" d="M535.9 216.4h-6.2v-2.7H545v2.7h-6.2v19.2H536v-19.2zM553.4 226H551v9.6h-2.8v-21.9h6.5c4.3 0 7 2.4 7 6.2 0 3.1-2 5.4-5.2 6l7.6 9.7h-3.4l-7.3-9.6zm1.2-2.4c2.9 0 4.3-1.4 4.3-3.6 0-2.3-1.4-3.6-4.3-3.6H551v7.2h3.6zM575.7 213.5l10.7 22.1h-3l-2.7-5.7h-9.9l-2.7 5.7h-3l10.6-22.1zm-3.7 13.8h7.4l-3.7-7.8-3.7 7.8zM589.3 213.7h2.8v11l10-11h3.5l-10.1 11.1 10.9 10.8h-3.7l-10.5-10.4v10.4h-2.8v-21.9zM617.7 213.5l10.7 22.1h-3l-2.7-5.7h-9.9l-2.7 5.7h-3l10.6-22.1zm-3.7 13.8h7.4l-3.7-7.8-3.7 7.8zM631.3 213.7h2.8v21.9h-2.8v-21.9zM647.5 216.1l2.7-2.7v22.1h-2.7v-19.4zM662.8 227.6c-.3.1-.7.2-1.4.2-3.9 0-7.1-3.2-7.1-7.1 0-3.9 3.2-7.2 7.3-7.2s7.2 3.2 7.2 7.2c0 1.5-.6 2.9-1.3 4.1l-6.5 10.9h-3l4.8-8.1zm3.3-7c0-2.6-1.9-4.7-4.6-4.7-2.7 0-4.6 2.1-4.6 4.7s1.9 4.7 4.6 4.7c2.7 0 4.6-2.1 4.6-4.7zM679.5 227.6c-.3.1-.7.2-1.4.2-3.9 0-7.1-3.2-7.1-7.1 0-3.9 3.2-7.2 7.3-7.2s7.2 3.2 7.2 7.2c0 1.5-.6 2.9-1.3 4.1l-6.5 10.9h-3l4.8-8.1zm3.3-7c0-2.6-1.9-4.7-4.6-4.7-2.7 0-4.6 2.1-4.6 4.7s1.9 4.7 4.6 4.7c2.7 0 4.6-2.1 4.6-4.7zM689.6 216.1l2.7-2.7v22.1h-2.7v-19.4z"/></g><g><defs><path id="SVGID_1_" d="M135.2 46H295v169H135.2z"/></defs><clipPath id="SVGID_2_"><use xlink:href="#SVGID_1_" overflow="visible"/></clipPath><g clip-path="url(#SVGID_2_)"><path class="st0" d="M-63.5 191.2h54.2v21.6h-54.2zM-7 191.2h54.2v21.6H-7zM49.4 191.2h54.2v21.6H49.4zM105.9 191.2h54.2v21.6h-54.2zM162.3 191.2h54.2v21.6h-54.2zM218.8 191.2H273v21.6h-54.2zM275.2 191.2h54.2v21.6h-54.2zM-7 143.5h54.2v21.6H-7zM49.4 143.5h54.2v21.6H49.4zM105.9 143.5h54.2v21.6h-54.2zM162.3 143.5h54.2v21.6h-54.2zM218.8 143.5H273v21.6h-54.2zM275.2 143.5h54.2v21.6h-54.2zM-34.1 167.3h54.2v21.6h-54.2zM22.3 167.3h54.2v21.6H22.3zM78.8 167.3H133v21.6H78.8zM135.2 167.3h54.2v21.6h-54.2zM191.7 167.3h54.2v21.6h-54.2zM248.1 167.3h54.2v21.6h-54.2zM304.6 167.3h54.2v21.6h-54.2zM49.4 95.9h54.2v21.6H49.4zM105.9 95.9h54.2v21.6h-54.2zM162.3 95.9h54.2v21.6h-54.2zM218.8 95.9H273v21.6h-54.2zM275.2 95.9h54.2v21.6h-54.2zM22.3 119.7h54.2v21.6H22.3zM78.8 119.7H133v21.6H78.8zM135.2 119.7h54.2v21.6h-54.2zM191.7 119.7h54.2v21.6h-54.2zM248.1 119.7h54.2v21.6h-54.2zM304.6 119.7h54.2v21.6h-54.2zM105.9 48.2h54.2v21.6h-54.2zM162.3 48.2h54.2v21.6h-54.2zM218.8 48.2H273v21.6h-54.2zM275.2 48.2h54.2v21.6h-54.2zM78.8 72.1H133v21.6H78.8zM135.2 72.1h54.2v21.6h-54.2zM191.7 72.1h54.2v21.6h-54.2zM248.1 72.1h54.2v21.6h-54.2zM304.6 72.1h54.2v21.6h-54.2z"/></g><path d="M172.8 71.1h26.8v59.6L241 71.1h30.8L230.1 131l47 58.9H244l-44.5-55.7v55.7h-26.8V71.1z" clip-path="url(#SVGID_2_)" fill="#fff"/></g></svg>
